<svg width="20" height="22" viewBox="0 0 20 22" fill="none" xmlns="http://www.w3.org/2000/svg">
<path fill-rule="evenodd" clip-rule="evenodd" d="M9.17593 0.175736C9.41025 -0.0585787 9.79015 -0.0585786 10.0245 0.175736L14.5245 4.67573C14.7588 4.91005 14.7588 5.28995 14.5245 5.52426C14.2901 5.75858 13.9102 5.75858 13.6759 5.52426L10.2 2.04833V11.85C10.2 12.1814 9.93137 12.45 9.6 12.45C9.26863 12.45 9 12.1814 9 11.85V2.04872L5.52446 5.52426C5.29015 5.75858 4.91025 5.75858 4.67593 5.52426C4.44162 5.28995 4.44162 4.91005 4.67593 4.67574L9.17593 0.175736ZM1.725 10.075C1.43505 10.075 1.2 10.3101 1.2 10.6V19.725C1.2 20.0149 1.43505 20.25 1.725 20.25H17.475C17.7649 20.25 18 20.0149 18 19.725V10.6C18 10.3101 17.7649 10.075 17.475 10.075H15.225C14.8936 10.075 14.625 9.80637 14.625 9.475C14.625 9.14363 14.8936 8.875 15.225 8.875H17.475C18.4277 8.875 19.2 9.64731 19.2 10.6V19.725C19.2 20.6777 18.4277 21.45 17.475 21.45H1.725C0.772309 21.45 0 20.6777 0 19.725V10.6C0 9.64731 0.772309 8.875 1.725 8.875H3.975C4.30637 8.875 4.575 9.14363 4.575 9.475C4.575 9.80637 4.30637 10.075 3.975 10.075H1.725Z" fill="#101010"/>
</svg>
